<mxfile host="app.diagrams.net" agent="Mozilla/5.0 (X11; Linux x86_64) AppleWebKit/537.36 (KHTML, like Gecko) Chrome/133.0.0.0 Safari/537.36" version="27.0.6">
  <diagram name="Page-1" id="6AMU0Ud-SFyGVthSRizk">
    <mxGraphModel dx="1251" dy="735" grid="1" gridSize="10" guides="1" tooltips="1" connect="1" arrows="1" fold="1" page="1" pageScale="1" pageWidth="850" pageHeight="1100" math="0" shadow="0">
      <root>
        <mxCell id="0" />
        <mxCell id="1" parent="0" />
        <mxCell id="Wx-3gpha0FLeQevEmSP5-50" value="" style="rounded=1;whiteSpace=wrap;html=1;fillColor=none;" vertex="1" parent="1">
          <mxGeometry x="60" y="60" width="830" height="780" as="geometry" />
        </mxCell>
        <mxCell id="Wx-3gpha0FLeQevEmSP5-62" value="" style="rounded=1;whiteSpace=wrap;html=1;fillColor=none;dashed=1;" vertex="1" parent="1">
          <mxGeometry x="90" y="90" width="765" height="680" as="geometry" />
        </mxCell>
        <mxCell id="Wx-3gpha0FLeQevEmSP5-3" value="Form Service Backend" style="rounded=1;whiteSpace=wrap;html=1;fontSize=13;" vertex="1" parent="1">
          <mxGeometry x="120" y="143" width="120" height="60" as="geometry" />
        </mxCell>
        <mxCell id="Wx-3gpha0FLeQevEmSP5-4" value="Form Service Frontend" style="rounded=1;whiteSpace=wrap;html=1;fontSize=13;" vertex="1" parent="1">
          <mxGeometry x="305" y="143" width="120" height="60" as="geometry" />
        </mxCell>
        <mxCell id="Wx-3gpha0FLeQevEmSP5-20" value="Device Manager" style="rounded=1;whiteSpace=wrap;html=1;fontSize=13;" vertex="1" parent="1">
          <mxGeometry x="120" y="380" width="120" height="60" as="geometry" />
        </mxCell>
        <mxCell id="Wx-3gpha0FLeQevEmSP5-21" value="Therapy and Monitoring&amp;nbsp; Manager" style="rounded=1;whiteSpace=wrap;html=1;fontSize=13;" vertex="1" parent="1">
          <mxGeometry x="305" y="380" width="120" height="60" as="geometry" />
        </mxCell>
        <mxCell id="Wx-3gpha0FLeQevEmSP5-28" value="Authentication Service&amp;nbsp;&lt;div&gt;/&amp;nbsp;&lt;div&gt;Auth0 Client&lt;/div&gt;&lt;/div&gt;" style="rounded=1;whiteSpace=wrap;html=1;fontSize=13;" vertex="1" parent="1">
          <mxGeometry x="520" y="470" width="120" height="60" as="geometry" />
        </mxCell>
        <mxCell id="Wx-3gpha0FLeQevEmSP5-29" value="User Manager Service" style="rounded=1;whiteSpace=wrap;html=1;fontSize=13;" vertex="1" parent="1">
          <mxGeometry x="705" y="470" width="120" height="60" as="geometry" />
        </mxCell>
        <mxCell id="Wx-3gpha0FLeQevEmSP5-31" value="Authorization Service" style="rounded=1;whiteSpace=wrap;html=1;fontSize=13;" vertex="1" parent="1">
          <mxGeometry x="520" y="557" width="120" height="60" as="geometry" />
        </mxCell>
        <mxCell id="Wx-3gpha0FLeQevEmSP5-32" value="Login Site" style="rounded=1;whiteSpace=wrap;html=1;fontSize=13;" vertex="1" parent="1">
          <mxGeometry x="705" y="557" width="120" height="60" as="geometry" />
        </mxCell>
        <mxCell id="Wx-3gpha0FLeQevEmSP5-34" value="Appointment Manager" style="rounded=1;whiteSpace=wrap;html=1;fontSize=13;" vertex="1" parent="1">
          <mxGeometry x="120" y="513.5" width="120" height="60" as="geometry" />
        </mxCell>
        <mxCell id="Wx-3gpha0FLeQevEmSP5-35" value="Teleconsultation Service Backend" style="rounded=1;whiteSpace=wrap;html=1;fontSize=13;" vertex="1" parent="1">
          <mxGeometry x="305" y="513.5" width="120" height="60" as="geometry" />
        </mxCell>
        <mxCell id="Wx-3gpha0FLeQevEmSP5-37" value="&lt;span style=&quot;caret-color: rgba(0, 0, 0, 0);&quot;&gt;Teleconsultation Service Frontend&lt;/span&gt;" style="rounded=1;whiteSpace=wrap;html=1;fontSize=13;" vertex="1" parent="1">
          <mxGeometry x="120" y="600.5" width="120" height="60" as="geometry" />
        </mxCell>
        <mxCell id="Wx-3gpha0FLeQevEmSP5-40" value="Notification Manager" style="rounded=1;whiteSpace=wrap;html=1;fontSize=13;" vertex="1" parent="1">
          <mxGeometry x="520" y="143" width="120" height="60" as="geometry" />
        </mxCell>
        <mxCell id="Wx-3gpha0FLeQevEmSP5-41" value="Mail Service" style="rounded=1;whiteSpace=wrap;html=1;fontSize=13;" vertex="1" parent="1">
          <mxGeometry x="705" y="143" width="120" height="60" as="geometry" />
        </mxCell>
        <mxCell id="Wx-3gpha0FLeQevEmSP5-43" value="&lt;span style=&quot;caret-color: rgba(0, 0, 0, 0);&quot;&gt;SMS Service&lt;/span&gt;" style="rounded=1;whiteSpace=wrap;html=1;fontSize=13;" vertex="1" parent="1">
          <mxGeometry x="520" y="230" width="120" height="60" as="geometry" />
        </mxCell>
        <mxCell id="Wx-3gpha0FLeQevEmSP5-44" value="Email Builder" style="rounded=1;whiteSpace=wrap;html=1;fontSize=13;" vertex="1" parent="1">
          <mxGeometry x="705" y="230" width="120" height="60" as="geometry" />
        </mxCell>
        <mxCell id="Wx-3gpha0FLeQevEmSP5-45" value="&lt;span style=&quot;caret-color: rgba(0, 0, 0, 0);&quot;&gt;Timer Service&lt;/span&gt;" style="rounded=1;whiteSpace=wrap;html=1;fontSize=13;" vertex="1" parent="1">
          <mxGeometry x="520" y="320" width="120" height="60" as="geometry" />
        </mxCell>
        <mxCell id="Wx-3gpha0FLeQevEmSP5-46" value="&lt;span style=&quot;caret-color: rgba(0, 0, 0, 0);&quot;&gt;Files Service&lt;/span&gt;" style="rounded=1;whiteSpace=wrap;html=1;fontSize=13;" vertex="1" parent="1">
          <mxGeometry x="705" y="320" width="120" height="60" as="geometry" />
        </mxCell>
        <mxCell id="Wx-3gpha0FLeQevEmSP5-54" value="CRUD Service" style="rounded=1;whiteSpace=wrap;html=1;fontSize=13;fillColor=#fff2cc;strokeColor=#d6b656;" vertex="1" parent="1">
          <mxGeometry x="520" y="680" width="120" height="60" as="geometry" />
        </mxCell>
        <mxCell id="Wx-3gpha0FLeQevEmSP5-5" value="Fhir Adapter" style="rounded=1;whiteSpace=wrap;html=1;fontSize=13;" vertex="1" parent="1">
          <mxGeometry x="120" y="230" width="120" height="60" as="geometry" />
        </mxCell>
        <mxCell id="Wx-3gpha0FLeQevEmSP5-6" value="Fhir Server" style="rounded=1;whiteSpace=wrap;html=1;fontSize=13;" vertex="1" parent="1">
          <mxGeometry x="305" y="230" width="120" height="60" as="geometry" />
        </mxCell>
        <mxCell id="Wx-3gpha0FLeQevEmSP5-61" value="API Gateway" style="rounded=1;whiteSpace=wrap;html=1;fontSize=13;fillColor=#f8cecc;strokeColor=#b85450;" vertex="1" parent="1">
          <mxGeometry x="305" y="740" width="120" height="60" as="geometry" />
        </mxCell>
        <mxCell id="Wx-3gpha0FLeQevEmSP5-63" value="Health Composable Platform" style="text;html=1;align=center;verticalAlign=middle;resizable=0;points=[];autosize=1;strokeColor=none;fillColor=none;fontSize=14;" vertex="1" parent="1">
          <mxGeometry x="150" y="90" width="200" height="30" as="geometry" />
        </mxCell>
      </root>
    </mxGraphModel>
  </diagram>
</mxfile>
